<svg width="20" height="19" viewBox="0 0 20 19" fill="none" xmlns="http://www.w3.org/2000/svg">
<path d="M13.0329 1.30793C13.0329 1.30793 15.8917 4.59293 19.2306 8.42149C19.5106 8.74019 19.6478 9.15744 19.6447 9.57357C19.6417 9.98969 19.4985 10.4047 19.214 10.7188C15.8221 14.4933 12.9141 17.7297 12.9141 17.7297C12.6334 18.0417 12.2674 18.1948 11.9006 18.1919C11.5319 18.1889 11.1644 18.0256 10.8863 17.7047C10.3282 17.0673 10.3318 16.04 10.8952 15.4138L14.7227 11.1596L1.8699 11.0562C1.07488 11.0498 0.434911 10.3164 0.441399 9.41909C0.447888 8.52182 1.09839 7.7988 1.89341 7.80519L14.7462 7.90858L10.9788 3.5889C10.4284 2.95808 10.4396 1.93513 11.0068 1.30463C11.2914 0.988308 11.6613 0.830891 12.0281 0.831674C12.3949 0.834624 12.7567 0.991425 13.0329 1.30793Z" fill="url(#paint0_linear_39_81)"/>
<defs>
<linearGradient id="paint0_linear_39_81" x1="19.7075" y1="0.893448" x2="-0.483328" y2="24.6209" gradientUnits="userSpaceOnUse">
<stop stop-color="#5B247A"/>
<stop offset="1" stop-color="#1BCEDF"/>
</linearGradient>
</defs>
</svg>
