<svg width="111" height="106" viewBox="0 0 111 106" fill="none" xmlns="http://www.w3.org/2000/svg">
<path d="M12.9242 40.5714L37.9242 34.0714C40.6742 33.3214 42.4242 30.5714 41.6742 27.5714C40.9242 24.8214 38.1742 23.0714 35.1742 23.8214L22.1742 27.3214C26.4242 21.8214 31.9242 17.3214 38.6742 14.3214C48.9242 9.82143 60.1742 9.57143 70.6742 13.5714C80.9242 17.5714 89.1742 25.5714 93.6742 35.5714C94.9242 38.3214 97.9242 39.3214 100.674 38.3214C103.424 37.0714 104.424 34.0714 103.424 31.3214C97.9242 18.5714 87.6742 8.82143 74.6742 3.57143C61.6742 -1.42857 47.4242 -1.17857 34.6742 4.32143C26.1742 8.07143 19.1742 13.8214 13.6742 21.0714L10.4242 8.82143C9.67419 6.07143 6.92419 4.32143 3.92419 5.07143C1.17419 5.82143 -0.575811 8.57143 0.174189 11.5714L6.67419 36.5714C7.42419 40.0714 9.17419 41.5714 12.9242 40.5714ZM110.674 93.5714L104.174 68.8214C104.174 68.8214 103.174 63.8214 98.1742 65.0714L73.1742 71.5714C70.4242 72.3214 68.6742 75.0714 69.4242 78.0714C70.1742 80.8214 72.9242 82.5714 75.9242 81.8214L88.9242 78.3214C77.9242 92.8214 58.4242 98.8214 40.6742 91.8214C30.4242 87.8214 22.1742 79.8214 17.6742 69.8214C16.4242 67.0714 13.4242 66.0714 10.6742 67.0714C7.92419 68.3214 6.92419 71.3214 7.92419 74.0714C13.4242 86.8214 23.6742 96.5714 36.6742 101.821C42.9242 104.321 49.1742 105.321 55.6742 105.321C72.1742 105.321 87.6742 97.5714 97.6742 84.0714L100.924 96.3214C101.424 98.5714 103.674 100.321 105.924 100.321C106.424 100.321 106.924 100.321 107.174 100.071C109.674 99.0714 111.424 96.3214 110.674 93.5714Z" fill="url(#paint0_linear_53_3)"/>
<defs>
<linearGradient id="paint0_linear_53_3" x1="0" y1="0" x2="133.049" y2="129.767" gradientUnits="userSpaceOnUse">
<stop stop-color="#5B247A"/>
<stop offset="1" stop-color="#1BCEDF"/>
</linearGradient>
</defs>
</svg>
