<svg width="540" height="540" viewBox="0 0 540 540" fill="none" xmlns="http://www.w3.org/2000/svg">
<rect width="540" height="540" rx="270" fill="white"/>
<path d="M206.004 300.5C168.008 293.501 121.504 257.5 121.504 192L170 245.5L206.004 271L276.004 259L312.004 228L335.504 194.5C335.256 215.936 334.644 227.939 322.504 249L407.004 325.5C416 333.5 419 348.5 399.965 360.5C386 370.5 376 367.5 363.004 360L302.504 300.5C299.309 296.093 300.504 289 300.504 289L293.004 280.5C287.5 289 244 307.5 206.004 300.5Z" fill="#B0C7D1"/>
<mask id="path-3-outside-1_83_8" maskUnits="userSpaceOnUse" x="62" y="376" width="421" height="69" fill="black">
<rect fill="white" x="62" y="376" width="421" height="69"/>
<path d="M123.732 385.4V441H114.612V402.92L97.6519 441H91.3319L74.2919 402.92V441H65.1719V385.4H75.0119L94.5319 429L113.972 385.4H123.732ZM176.119 417.88C176.119 419.533 176.012 421.027 175.799 422.36H142.119C142.385 425.88 143.692 428.707 146.039 430.84C148.385 432.973 151.265 434.04 154.679 434.04C159.585 434.04 163.052 431.987 165.079 427.88H174.919C173.585 431.933 171.159 435.267 167.639 437.88C164.172 440.44 159.852 441.72 154.679 441.72C150.465 441.72 146.679 440.787 143.319 438.92C140.012 437 137.399 434.333 135.479 430.92C133.612 427.453 132.679 423.453 132.679 418.92C132.679 414.387 133.585 410.413 135.399 407C137.265 403.533 139.852 400.867 143.159 399C146.519 397.133 150.359 396.2 154.679 396.2C158.839 396.2 162.545 397.107 165.799 398.92C169.052 400.733 171.585 403.293 173.399 406.6C175.212 409.853 176.119 413.613 176.119 417.88ZM166.599 415C166.545 411.64 165.345 408.947 162.999 406.92C160.652 404.893 157.745 403.88 154.279 403.88C151.132 403.88 148.439 404.893 146.199 406.92C143.959 408.893 142.625 411.587 142.199 415H166.599ZM182.054 418.76C182.054 414.333 182.96 410.413 184.774 407C186.64 403.587 189.147 400.947 192.294 399.08C195.494 397.16 199.04 396.2 202.934 396.2C205.814 396.2 208.64 396.84 211.414 398.12C214.24 399.347 216.48 401 218.134 403.08V381.8H227.334V441H218.134V434.36C216.64 436.493 214.56 438.253 211.894 439.64C209.28 441.027 206.267 441.72 202.854 441.72C199.014 441.72 195.494 440.76 192.294 438.84C189.147 436.867 186.64 434.147 184.774 430.68C182.96 427.16 182.054 423.187 182.054 418.76ZM218.134 418.92C218.134 415.88 217.494 413.24 216.214 411C214.987 408.76 213.36 407.053 211.334 405.88C209.307 404.707 207.12 404.12 204.774 404.12C202.427 404.12 200.24 404.707 198.214 405.88C196.187 407 194.534 408.68 193.254 410.92C192.027 413.107 191.414 415.72 191.414 418.76C191.414 421.8 192.027 424.467 193.254 426.76C194.534 429.053 196.187 430.813 198.214 432.04C200.294 433.213 202.48 433.8 204.774 433.8C207.12 433.8 209.307 433.213 211.334 432.04C213.36 430.867 214.987 429.16 216.214 426.92C217.494 424.627 218.134 421.96 218.134 418.92Z"/>
<path d="M272.033 385.4V392.84H248.433V409.24H266.833V416.68H248.433V441H239.313V385.4H272.033ZM285.124 391.08C283.471 391.08 282.084 390.52 280.964 389.4C279.844 388.28 279.284 386.893 279.284 385.24C279.284 383.587 279.844 382.2 280.964 381.08C282.084 379.96 283.471 379.4 285.124 379.4C286.724 379.4 288.084 379.96 289.204 381.08C290.324 382.2 290.884 383.587 290.884 385.24C290.884 386.893 290.324 388.28 289.204 389.4C288.084 390.52 286.724 391.08 285.124 391.08ZM289.604 396.92V441H280.484V396.92H289.604ZM323.818 396.2C327.285 396.2 330.378 396.92 333.098 398.36C335.871 399.8 338.031 401.933 339.578 404.76C341.125 407.587 341.898 411 341.898 415V441H332.858V416.36C332.858 412.413 331.871 409.4 329.898 407.32C327.925 405.187 325.231 404.12 321.818 404.12C318.405 404.12 315.685 405.187 313.658 407.32C311.685 409.4 310.698 412.413 310.698 416.36V441H301.578V396.92H310.698V401.96C312.191 400.147 314.085 398.733 316.378 397.72C318.725 396.707 321.205 396.2 323.818 396.2ZM350.491 418.76C350.491 414.333 351.398 410.413 353.211 407C355.078 403.587 357.585 400.947 360.731 399.08C363.931 397.16 367.478 396.2 371.371 396.2C374.251 396.2 377.078 396.84 379.851 398.12C382.678 399.347 384.918 401 386.571 403.08V381.8H395.771V441H386.571V434.36C385.078 436.493 382.998 438.253 380.331 439.64C377.718 441.027 374.705 441.72 371.291 441.72C367.451 441.72 363.931 440.76 360.731 438.84C357.585 436.867 355.078 434.147 353.211 430.68C351.398 427.16 350.491 423.187 350.491 418.76ZM386.571 418.92C386.571 415.88 385.931 413.24 384.651 411C383.425 408.76 381.798 407.053 379.771 405.88C377.745 404.707 375.558 404.12 373.211 404.12C370.865 404.12 368.678 404.707 366.651 405.88C364.625 407 362.971 408.68 361.691 410.92C360.465 413.107 359.851 415.72 359.851 418.76C359.851 421.8 360.465 424.467 361.691 426.76C362.971 429.053 364.625 430.813 366.651 432.04C368.731 433.213 370.918 433.8 373.211 433.8C375.558 433.8 377.745 433.213 379.771 432.04C381.798 430.867 383.425 429.16 384.651 426.92C385.931 424.627 386.571 421.96 386.571 418.92ZM448.15 417.88C448.15 419.533 448.043 421.027 447.83 422.36H414.15C414.417 425.88 415.723 428.707 418.07 430.84C420.417 432.973 423.297 434.04 426.71 434.04C431.617 434.04 435.083 431.987 437.11 427.88H446.95C445.617 431.933 443.19 435.267 439.67 437.88C436.203 440.44 431.883 441.72 426.71 441.72C422.497 441.72 418.71 440.787 415.35 438.92C412.043 437 409.43 434.333 407.51 430.92C405.643 427.453 404.71 423.453 404.71 418.92C404.71 414.387 405.617 410.413 407.43 407C409.297 403.533 411.883 400.867 415.19 399C418.55 397.133 422.39 396.2 426.71 396.2C430.87 396.2 434.577 397.107 437.83 398.92C441.083 400.733 443.617 403.293 445.43 406.6C447.243 409.853 448.15 413.613 448.15 417.88ZM438.63 415C438.577 411.64 437.377 408.947 435.03 406.92C432.683 404.893 429.777 403.88 426.31 403.88C423.163 403.88 420.47 404.893 418.23 406.92C415.99 408.893 414.657 411.587 414.23 415H438.63ZM466.245 403.32C467.578 401.08 469.338 399.347 471.525 398.12C473.765 396.84 476.405 396.2 479.445 396.2V405.64H477.125C473.552 405.64 470.832 406.547 468.965 408.36C467.152 410.173 466.245 413.32 466.245 417.8V441H457.125V396.92H466.245V403.32Z"/>
</mask>
<path d="M123.732 385.4V441H114.612V402.92L97.6519 441H91.3319L74.2919 402.92V441H65.1719V385.4H75.0119L94.5319 429L113.972 385.4H123.732ZM176.119 417.88C176.119 419.533 176.012 421.027 175.799 422.36H142.119C142.385 425.88 143.692 428.707 146.039 430.84C148.385 432.973 151.265 434.04 154.679 434.04C159.585 434.04 163.052 431.987 165.079 427.88H174.919C173.585 431.933 171.159 435.267 167.639 437.88C164.172 440.44 159.852 441.72 154.679 441.72C150.465 441.72 146.679 440.787 143.319 438.92C140.012 437 137.399 434.333 135.479 430.92C133.612 427.453 132.679 423.453 132.679 418.92C132.679 414.387 133.585 410.413 135.399 407C137.265 403.533 139.852 400.867 143.159 399C146.519 397.133 150.359 396.2 154.679 396.2C158.839 396.2 162.545 397.107 165.799 398.92C169.052 400.733 171.585 403.293 173.399 406.6C175.212 409.853 176.119 413.613 176.119 417.88ZM166.599 415C166.545 411.64 165.345 408.947 162.999 406.92C160.652 404.893 157.745 403.88 154.279 403.88C151.132 403.88 148.439 404.893 146.199 406.92C143.959 408.893 142.625 411.587 142.199 415H166.599ZM182.054 418.76C182.054 414.333 182.96 410.413 184.774 407C186.64 403.587 189.147 400.947 192.294 399.08C195.494 397.16 199.04 396.2 202.934 396.2C205.814 396.2 208.64 396.84 211.414 398.12C214.24 399.347 216.48 401 218.134 403.08V381.8H227.334V441H218.134V434.36C216.64 436.493 214.56 438.253 211.894 439.64C209.28 441.027 206.267 441.72 202.854 441.72C199.014 441.72 195.494 440.76 192.294 438.84C189.147 436.867 186.64 434.147 184.774 430.68C182.96 427.16 182.054 423.187 182.054 418.76ZM218.134 418.92C218.134 415.88 217.494 413.24 216.214 411C214.987 408.76 213.36 407.053 211.334 405.88C209.307 404.707 207.12 404.12 204.774 404.12C202.427 404.12 200.24 404.707 198.214 405.88C196.187 407 194.534 408.68 193.254 410.92C192.027 413.107 191.414 415.72 191.414 418.76C191.414 421.8 192.027 424.467 193.254 426.76C194.534 429.053 196.187 430.813 198.214 432.04C200.294 433.213 202.48 433.8 204.774 433.8C207.12 433.8 209.307 433.213 211.334 432.04C213.36 430.867 214.987 429.16 216.214 426.92C217.494 424.627 218.134 421.96 218.134 418.92Z" fill="url(#paint0_linear_83_8)"/>
<path d="M272.033 385.4V392.84H248.433V409.24H266.833V416.68H248.433V441H239.313V385.4H272.033ZM285.124 391.08C283.471 391.08 282.084 390.52 280.964 389.4C279.844 388.28 279.284 386.893 279.284 385.24C279.284 383.587 279.844 382.2 280.964 381.08C282.084 379.96 283.471 379.4 285.124 379.4C286.724 379.4 288.084 379.96 289.204 381.08C290.324 382.2 290.884 383.587 290.884 385.24C290.884 386.893 290.324 388.28 289.204 389.4C288.084 390.52 286.724 391.08 285.124 391.08ZM289.604 396.92V441H280.484V396.92H289.604ZM323.818 396.2C327.285 396.2 330.378 396.92 333.098 398.36C335.871 399.8 338.031 401.933 339.578 404.76C341.125 407.587 341.898 411 341.898 415V441H332.858V416.36C332.858 412.413 331.871 409.4 329.898 407.32C327.925 405.187 325.231 404.12 321.818 404.12C318.405 404.12 315.685 405.187 313.658 407.32C311.685 409.4 310.698 412.413 310.698 416.36V441H301.578V396.92H310.698V401.96C312.191 400.147 314.085 398.733 316.378 397.72C318.725 396.707 321.205 396.2 323.818 396.2ZM350.491 418.76C350.491 414.333 351.398 410.413 353.211 407C355.078 403.587 357.585 400.947 360.731 399.08C363.931 397.16 367.478 396.2 371.371 396.2C374.251 396.2 377.078 396.84 379.851 398.12C382.678 399.347 384.918 401 386.571 403.08V381.8H395.771V441H386.571V434.36C385.078 436.493 382.998 438.253 380.331 439.64C377.718 441.027 374.705 441.72 371.291 441.72C367.451 441.72 363.931 440.76 360.731 438.84C357.585 436.867 355.078 434.147 353.211 430.68C351.398 427.16 350.491 423.187 350.491 418.76ZM386.571 418.92C386.571 415.88 385.931 413.24 384.651 411C383.425 408.76 381.798 407.053 379.771 405.88C377.745 404.707 375.558 404.12 373.211 404.12C370.865 404.12 368.678 404.707 366.651 405.88C364.625 407 362.971 408.68 361.691 410.92C360.465 413.107 359.851 415.72 359.851 418.76C359.851 421.8 360.465 424.467 361.691 426.76C362.971 429.053 364.625 430.813 366.651 432.04C368.731 433.213 370.918 433.8 373.211 433.8C375.558 433.8 377.745 433.213 379.771 432.04C381.798 430.867 383.425 429.16 384.651 426.92C385.931 424.627 386.571 421.96 386.571 418.92ZM448.15 417.88C448.15 419.533 448.043 421.027 447.83 422.36H414.15C414.417 425.88 415.723 428.707 418.07 430.84C420.417 432.973 423.297 434.04 426.71 434.04C431.617 434.04 435.083 431.987 437.11 427.88H446.95C445.617 431.933 443.19 435.267 439.67 437.88C436.203 440.44 431.883 441.72 426.71 441.72C422.497 441.72 418.71 440.787 415.35 438.92C412.043 437 409.43 434.333 407.51 430.92C405.643 427.453 404.71 423.453 404.71 418.92C404.71 414.387 405.617 410.413 407.43 407C409.297 403.533 411.883 400.867 415.19 399C418.55 397.133 422.39 396.2 426.71 396.2C430.87 396.2 434.577 397.107 437.83 398.92C441.083 400.733 443.617 403.293 445.43 406.6C447.243 409.853 448.15 413.613 448.15 417.88ZM438.63 415C438.577 411.64 437.377 408.947 435.03 406.92C432.683 404.893 429.777 403.88 426.31 403.88C423.163 403.88 420.47 404.893 418.23 406.92C415.99 408.893 414.657 411.587 414.23 415H438.63ZM466.245 403.32C467.578 401.08 469.338 399.347 471.525 398.12C473.765 396.84 476.405 396.2 479.445 396.2V405.64H477.125C473.552 405.64 470.832 406.547 468.965 408.36C467.152 410.173 466.245 413.32 466.245 417.8V441H457.125V396.92H466.245V403.32Z" fill="#1BCEDF"/>
<path d="M123.732 385.4H126.732V382.4H123.732V385.4ZM123.732 441V444H126.732V441H123.732ZM114.612 441H111.612V444H114.612V441ZM114.612 402.92H117.612L111.871 401.699L114.612 402.92ZM97.6519 441V444H99.5998L100.392 442.221L97.6519 441ZM91.3319 441L88.5935 442.225L89.3877 444H91.3319V441ZM74.2919 402.92L77.0302 401.695L71.2919 402.92H74.2919ZM74.2919 441V444H77.2919V441H74.2919ZM65.1719 441H62.1719V444H65.1719V441ZM65.1719 385.4V382.4H62.1719V385.4H65.1719ZM75.0119 385.4L77.75 384.174L76.9557 382.4H75.0119V385.4ZM94.5319 429L91.7938 430.226L94.5375 436.354L97.2719 430.222L94.5319 429ZM113.972 385.4V382.4H112.025L111.232 384.178L113.972 385.4ZM120.732 385.4V441H126.732V385.4H120.732ZM123.732 438H114.612V444H123.732V438ZM117.612 441V402.92H111.612V441H117.612ZM111.871 401.699L94.9114 439.779L100.392 442.221L117.352 404.141L111.871 401.699ZM97.6519 438H91.3319V444H97.6519V438ZM94.0702 439.775L77.0302 401.695L71.5535 404.145L88.5935 442.225L94.0702 439.775ZM71.2919 402.92V441H77.2919V402.92H71.2919ZM74.2919 438H65.1719V444H74.2919V438ZM68.1719 441V385.4H62.1719V441H68.1719ZM65.1719 388.4H75.0119V382.4H65.1719V388.4ZM72.2738 386.626L91.7938 430.226L97.27 427.774L77.75 384.174L72.2738 386.626ZM97.2719 430.222L116.712 386.622L111.232 384.178L91.7919 427.778L97.2719 430.222ZM113.972 388.4H123.732V382.4H113.972V388.4ZM175.799 422.36V425.36H178.357L178.761 422.834L175.799 422.36ZM142.119 422.36V419.36H138.883L139.127 422.587L142.119 422.36ZM146.039 430.84L144.021 433.06L144.021 433.06L146.039 430.84ZM165.079 427.88V424.88H163.214L162.389 426.552L165.079 427.88ZM174.919 427.88L177.769 428.817L179.064 424.88H174.919V427.88ZM167.639 437.88L169.421 440.293L169.427 440.289L167.639 437.88ZM143.319 438.92L141.812 441.514L141.837 441.529L141.862 441.542L143.319 438.92ZM135.479 430.92L132.837 432.342L132.85 432.367L132.864 432.391L135.479 430.92ZM135.399 407L132.757 405.578L132.753 405.585L132.749 405.593L135.399 407ZM143.159 399L141.702 396.378L141.693 396.382L141.684 396.388L143.159 399ZM165.799 398.92L167.259 396.3L167.259 396.3L165.799 398.92ZM173.399 406.6L170.768 408.042L170.773 408.052L170.778 408.061L173.399 406.6ZM166.599 415V418H169.647L169.598 414.952L166.599 415ZM162.999 406.92L164.96 404.65L164.96 404.65L162.999 406.92ZM146.199 406.92L148.182 409.171L148.197 409.158L148.211 409.145L146.199 406.92ZM142.199 415L139.222 414.628L138.8 418H142.199V415ZM173.119 417.88C173.119 419.408 173.02 420.74 172.836 421.886L178.761 422.834C179.004 421.314 179.119 419.658 179.119 417.88H173.119ZM175.799 419.36H142.119V425.36H175.799V419.36ZM139.127 422.587C139.445 426.777 141.041 430.351 144.021 433.06L148.057 428.62C146.343 427.062 145.326 424.983 145.11 422.133L139.127 422.587ZM144.021 433.06C146.964 435.735 150.581 437.04 154.679 437.04V431.04C151.95 431.04 149.807 430.211 148.057 428.62L144.021 433.06ZM154.679 437.04C157.553 437.04 160.2 436.436 162.488 435.081C164.787 433.719 166.534 431.709 167.769 429.208L162.389 426.552C161.596 428.157 160.597 429.228 159.43 429.919C158.251 430.617 156.711 431.04 154.679 431.04V437.04ZM165.079 430.88H174.919V424.88H165.079V430.88ZM172.069 426.943C170.935 430.391 168.888 433.216 165.85 435.471L169.427 440.289C173.43 437.317 176.236 433.476 177.769 428.817L172.069 426.943ZM165.857 435.467C163.003 437.574 159.343 438.72 154.679 438.72V444.72C160.362 444.72 165.341 443.306 169.421 440.293L165.857 435.467ZM154.679 438.72C150.925 438.72 147.648 437.893 144.776 436.298L141.862 441.542C145.709 443.68 150.006 444.72 154.679 444.72V438.72ZM144.825 436.326C141.993 434.681 139.758 432.408 138.093 429.449L132.864 432.391C135.04 436.259 138.031 439.319 141.812 441.514L144.825 436.326ZM138.12 429.498C136.522 426.53 135.679 423.033 135.679 418.92H129.679C129.679 423.874 130.702 428.376 132.837 432.342L138.12 429.498ZM135.679 418.92C135.679 414.792 136.502 411.318 138.048 408.407L132.749 405.593C130.669 409.509 129.679 413.981 129.679 418.92H135.679ZM138.04 408.422C139.649 405.435 141.839 403.19 144.634 401.612L141.684 396.388C137.865 398.543 134.882 401.631 132.757 405.578L138.04 408.422ZM144.616 401.622C147.477 400.033 150.804 399.2 154.679 399.2V393.2C149.913 393.2 145.561 394.234 141.702 396.378L144.616 401.622ZM154.679 399.2C158.388 399.2 161.582 400.004 164.338 401.54L167.259 396.3C163.509 394.209 159.289 393.2 154.679 393.2V399.2ZM164.338 401.54C167.092 403.075 169.223 405.224 170.768 408.042L176.029 405.158C173.948 401.363 171.012 398.391 167.259 396.3L164.338 401.54ZM170.778 408.061C172.308 410.806 173.119 414.049 173.119 417.88H179.119C179.119 413.177 178.116 408.901 176.019 405.139L170.778 408.061ZM169.598 414.952C169.533 410.818 168.012 407.286 164.96 404.65L161.038 409.19C162.679 410.608 163.558 412.462 163.599 415.048L169.598 414.952ZM164.96 404.65C162.003 402.096 158.374 400.88 154.279 400.88V406.88C157.116 406.88 159.301 407.691 161.038 409.19L164.96 404.65ZM154.279 400.88C150.422 400.88 147.002 402.147 144.186 404.695L148.211 409.145C149.875 407.639 151.842 406.88 154.279 406.88V400.88ZM144.216 404.669C141.343 407.199 139.725 410.606 139.222 414.628L145.176 415.372C145.526 412.568 146.574 410.587 148.182 409.171L144.216 404.669ZM142.199 418H166.599V412H142.199V418ZM184.774 407L182.142 405.561L182.133 405.576L182.124 405.593L184.774 407ZM192.294 399.08L193.824 401.66L193.831 401.656L193.837 401.652L192.294 399.08ZM211.414 398.12L210.157 400.844L210.188 400.858L210.219 400.872L211.414 398.12ZM218.134 403.08L215.785 404.947L221.134 411.675V403.08H218.134ZM218.134 381.8V378.8H215.134V381.8H218.134ZM227.334 381.8H230.334V378.8H227.334V381.8ZM227.334 441V444H230.334V441H227.334ZM218.134 441H215.134V444H218.134V441ZM218.134 434.36H221.134V424.843L215.676 432.64L218.134 434.36ZM211.894 439.64L210.51 436.978L210.499 436.984L210.488 436.99L211.894 439.64ZM192.294 438.84L190.7 441.382L190.725 441.397L190.75 441.412L192.294 438.84ZM184.774 430.68L182.107 432.054L182.119 432.078L182.132 432.102L184.774 430.68ZM216.214 411L213.582 412.441L213.596 412.465L213.609 412.488L216.214 411ZM211.334 405.88L209.831 408.476L209.831 408.476L211.334 405.88ZM198.214 405.88L199.665 408.506L199.691 408.491L199.717 408.476L198.214 405.88ZM193.254 410.92L190.649 409.432L190.643 409.442L190.637 409.452L193.254 410.92ZM193.254 426.76L190.608 428.175L190.621 428.199L190.634 428.222L193.254 426.76ZM198.214 432.04L196.66 434.606L196.7 434.63L196.74 434.653L198.214 432.04ZM211.334 432.04L212.837 434.636L212.837 434.636L211.334 432.04ZM216.214 426.92L213.594 425.458L213.588 425.468L213.582 425.479L216.214 426.92ZM185.054 418.76C185.054 414.752 185.872 411.328 187.423 408.407L182.124 405.593C180.049 409.499 179.054 413.914 179.054 418.76H185.054ZM187.406 408.439C189.031 405.467 191.17 403.235 193.824 401.66L190.763 396.5C187.124 398.659 184.25 401.706 182.142 405.561L187.406 408.439ZM193.837 401.652C196.55 400.025 199.56 399.2 202.934 399.2V393.2C198.521 393.2 194.437 394.295 190.75 396.508L193.837 401.652ZM202.934 399.2C205.354 399.2 207.753 399.735 210.157 400.844L212.671 395.396C209.528 393.945 206.274 393.2 202.934 393.2V399.2ZM210.219 400.872C212.667 401.934 214.484 403.309 215.785 404.947L220.482 401.213C218.477 398.691 215.814 396.759 212.608 395.368L210.219 400.872ZM221.134 403.08V381.8H215.134V403.08H221.134ZM218.134 384.8H227.334V378.8H218.134V384.8ZM224.334 381.8V441H230.334V381.8H224.334ZM227.334 438H218.134V444H227.334V438ZM221.134 441V434.36H215.134V441H221.134ZM215.676 432.64C214.5 434.32 212.814 435.78 210.51 436.978L213.278 442.302C216.307 440.727 218.781 438.666 220.591 436.08L215.676 432.64ZM210.488 436.99C208.37 438.114 205.853 438.72 202.854 438.72V444.72C206.682 444.72 210.191 443.94 213.3 442.29L210.488 436.99ZM202.854 438.72C199.541 438.72 196.557 437.899 193.837 436.268L190.75 441.412C194.43 443.621 198.487 444.72 202.854 444.72V438.72ZM193.888 436.298C191.208 434.618 189.051 432.295 187.415 429.258L182.132 432.102C184.23 435.998 187.086 439.115 190.7 441.382L193.888 436.298ZM187.441 429.306C185.871 426.259 185.054 422.766 185.054 418.76H179.054C179.054 423.608 180.05 428.061 182.107 432.054L187.441 429.306ZM221.134 418.92C221.134 415.452 220.4 412.28 218.818 409.512L213.609 412.488C214.587 414.2 215.134 416.308 215.134 418.92H221.134ZM218.845 409.559C217.38 406.883 215.381 404.756 212.837 403.284L209.831 408.476C211.34 409.35 212.595 410.637 213.582 412.441L218.845 409.559ZM212.837 403.284C210.352 401.845 207.647 401.12 204.774 401.12V407.12C206.594 407.12 208.262 407.568 209.831 408.476L212.837 403.284ZM204.774 401.12C201.9 401.12 199.195 401.845 196.711 403.284L199.717 408.476C201.286 407.568 202.954 407.12 204.774 407.12V401.12ZM196.763 403.254C194.201 404.67 192.17 406.77 190.649 409.432L195.858 412.408C196.898 410.59 198.173 409.33 199.665 408.506L196.763 403.254ZM190.637 409.452C189.111 412.173 188.414 415.315 188.414 418.76H194.414C194.414 416.125 194.943 414.04 195.87 412.388L190.637 409.452ZM188.414 418.76C188.414 422.21 189.112 425.378 190.608 428.175L195.899 425.345C194.942 423.555 194.414 421.39 194.414 418.76H188.414ZM190.634 428.222C192.14 430.919 194.141 433.082 196.66 434.606L199.767 429.473C198.233 428.545 196.928 427.187 195.873 425.298L190.634 428.222ZM196.74 434.653C199.25 436.069 201.942 436.8 204.774 436.8V430.8C203.019 430.8 201.337 430.358 199.688 429.427L196.74 434.653ZM204.774 436.8C207.647 436.8 210.352 436.075 212.837 434.636L209.831 429.444C208.262 430.352 206.594 430.8 204.774 430.8V436.8ZM212.837 434.636C215.381 433.164 217.38 431.037 218.845 428.361L213.582 425.479C212.595 427.283 211.34 428.57 209.831 429.444L212.837 434.636ZM218.833 428.382C220.4 425.576 221.134 422.39 221.134 418.92H215.134C215.134 421.53 214.588 423.678 213.594 425.458L218.833 428.382ZM272.033 385.4H275.033V382.4H272.033V385.4ZM272.033 392.84V395.84H275.033V392.84H272.033ZM248.433 392.84V389.84H245.433V392.84H248.433ZM248.433 409.24H245.433V412.24H248.433V409.24ZM266.833 409.24H269.833V406.24H266.833V409.24ZM266.833 416.68V419.68H269.833V416.68H266.833ZM248.433 416.68V413.68H245.433V416.68H248.433ZM248.433 441V444H251.433V441H248.433ZM239.313 441H236.313V444H239.313V441ZM239.313 385.4V382.4H236.313V385.4H239.313ZM269.033 385.4V392.84H275.033V385.4H269.033ZM272.033 389.84H248.433V395.84H272.033V389.84ZM245.433 392.84V409.24H251.433V392.84H245.433ZM248.433 412.24H266.833V406.24H248.433V412.24ZM263.833 409.24V416.68H269.833V409.24H263.833ZM266.833 413.68H248.433V419.68H266.833V413.68ZM245.433 416.68V441H251.433V416.68H245.433ZM248.433 438H239.313V444H248.433V438ZM242.313 441V385.4H236.313V441H242.313ZM239.313 388.4H272.033V382.4H239.313V388.4ZM280.964 389.4L283.086 387.279L283.086 387.279L280.964 389.4ZM280.964 381.08L283.086 383.201L283.086 383.201L280.964 381.08ZM289.204 381.08L287.083 383.201L287.083 383.201L289.204 381.08ZM289.204 389.4L287.083 387.279L287.083 387.279L289.204 389.4ZM289.604 396.92H292.604V393.92H289.604V396.92ZM289.604 441V444H292.604V441H289.604ZM280.484 441H277.484V444H280.484V441ZM280.484 396.92V393.92H277.484V396.92H280.484ZM285.124 388.08C284.228 388.08 283.616 387.809 283.086 387.279L278.843 391.521C280.553 393.231 282.714 394.08 285.124 394.08V388.08ZM283.086 387.279C282.555 386.748 282.284 386.137 282.284 385.24H276.284C276.284 387.65 277.134 389.812 278.843 391.521L283.086 387.279ZM282.284 385.24C282.284 384.343 282.555 383.732 283.086 383.201L278.843 378.959C277.134 380.668 276.284 382.83 276.284 385.24H282.284ZM283.086 383.201C283.616 382.671 284.228 382.4 285.124 382.4V376.4C282.714 376.4 280.553 377.249 278.843 378.959L283.086 383.201ZM285.124 382.4C285.938 382.4 286.532 382.65 287.083 383.201L291.326 378.959C289.637 377.27 287.511 376.4 285.124 376.4V382.4ZM287.083 383.201C287.614 383.732 287.884 384.343 287.884 385.24H293.884C293.884 382.83 293.035 380.668 291.326 378.959L287.083 383.201ZM287.884 385.24C287.884 386.137 287.614 386.748 287.083 387.279L291.326 391.521C293.035 389.812 293.884 387.65 293.884 385.24H287.884ZM287.083 387.279C286.532 387.83 285.938 388.08 285.124 388.08V394.08C287.511 394.08 289.637 393.21 291.326 391.521L287.083 387.279ZM286.604 396.92V441H292.604V396.92H286.604ZM289.604 438H280.484V444H289.604V438ZM283.484 441V396.92H277.484V441H283.484ZM280.484 399.92H289.604V393.92H280.484V399.92ZM333.098 398.36L331.694 401.011L331.705 401.017L331.716 401.022L333.098 398.36ZM339.578 404.76L336.946 406.2L336.946 406.2L339.578 404.76ZM341.898 441V444H344.898V441H341.898ZM332.858 441H329.858V444H332.858V441ZM329.898 407.32L327.696 409.357L327.709 409.371L327.722 409.385L329.898 407.32ZM313.658 407.32L311.483 405.254L311.482 405.255L313.658 407.32ZM310.698 441V444H313.698V441H310.698ZM301.578 441H298.578V444H301.578V441ZM301.578 396.92V393.92H298.578V396.92H301.578ZM310.698 396.92H313.698V393.92H310.698V396.92ZM310.698 401.96H307.698V410.322L313.014 403.867L310.698 401.96ZM316.378 397.72L315.189 394.966L315.177 394.971L315.166 394.976L316.378 397.72ZM323.818 399.2C326.858 399.2 329.459 399.828 331.694 401.011L334.502 395.709C331.297 394.012 327.711 393.2 323.818 393.2V399.2ZM331.716 401.022C333.943 402.179 335.676 403.879 336.946 406.2L342.21 403.32C340.387 399.988 337.8 397.421 334.481 395.698L331.716 401.022ZM336.946 406.2C338.2 408.491 338.898 411.384 338.898 415H344.898C344.898 410.616 344.05 406.682 342.21 403.32L336.946 406.2ZM338.898 415V441H344.898V415H338.898ZM341.898 438H332.858V444H341.898V438ZM335.858 441V416.36H329.858V441H335.858ZM335.858 416.36C335.858 411.938 334.749 408.074 332.075 405.255L327.722 409.385C328.994 410.726 329.858 412.889 329.858 416.36H335.858ZM332.1 405.283C329.459 402.428 325.908 401.12 321.818 401.12V407.12C324.555 407.12 326.39 407.946 327.696 409.357L332.1 405.283ZM321.818 401.12C317.726 401.12 314.168 402.428 311.483 405.254L315.833 409.386C317.202 407.946 319.084 407.12 321.818 407.12V401.12ZM311.482 405.255C308.807 408.074 307.698 411.938 307.698 416.36H313.698C313.698 412.889 314.562 410.726 315.835 409.385L311.482 405.255ZM307.698 416.36V441H313.698V416.36H307.698ZM310.698 438H301.578V444H310.698V438ZM304.578 441V396.92H298.578V441H304.578ZM301.578 399.92H310.698V393.92H301.578V399.92ZM307.698 396.92V401.96H313.698V396.92H307.698ZM313.014 403.867C314.19 402.439 315.696 401.301 317.591 400.464L315.166 394.976C312.474 396.165 310.193 397.854 308.382 400.053L313.014 403.867ZM317.567 400.474C319.53 399.627 321.604 399.2 323.818 399.2V393.2C320.805 393.2 317.92 393.787 315.189 394.966L317.567 400.474ZM353.211 407L350.579 405.561L350.57 405.576L350.562 405.593L353.211 407ZM360.731 399.08L362.262 401.66L362.268 401.656L362.275 401.652L360.731 399.08ZM379.851 398.12L378.594 400.844L378.625 400.858L378.657 400.872L379.851 398.12ZM386.571 403.08L384.223 404.947L389.571 411.675V403.08H386.571ZM386.571 381.8V378.8H383.571V381.8H386.571ZM395.771 381.8H398.771V378.8H395.771V381.8ZM395.771 441V444H398.771V441H395.771ZM386.571 441H383.571V444H386.571V441ZM386.571 434.36H389.571V424.843L384.114 432.64L386.571 434.36ZM380.331 439.64L378.947 436.978L378.936 436.984L378.925 436.99L380.331 439.64ZM360.731 438.84L359.137 441.382L359.162 441.397L359.188 441.412L360.731 438.84ZM353.211 430.68L350.544 432.054L350.557 432.078L350.57 432.102L353.211 430.68ZM384.651 411L382.02 412.441L382.033 412.465L382.047 412.488L384.651 411ZM379.771 405.88L378.268 408.476L378.268 408.476L379.771 405.88ZM366.651 405.88L368.102 408.506L368.128 408.491L368.154 408.476L366.651 405.88ZM361.691 410.92L359.087 409.432L359.081 409.442L359.075 409.452L361.691 410.92ZM361.691 426.76L359.046 428.175L359.059 428.199L359.072 428.222L361.691 426.76ZM366.651 432.04L365.098 434.606L365.137 434.63L365.177 434.653L366.651 432.04ZM379.771 432.04L381.274 434.636L381.274 434.636L379.771 432.04ZM384.651 426.92L382.032 425.458L382.026 425.468L382.02 425.479L384.651 426.92ZM353.491 418.76C353.491 414.752 354.309 411.328 355.861 408.407L350.562 405.593C348.487 409.499 347.491 413.914 347.491 418.76H353.491ZM355.843 408.439C357.469 405.467 359.608 403.235 362.262 401.66L359.201 396.5C355.562 398.659 352.687 401.706 350.579 405.561L355.843 408.439ZM362.275 401.652C364.988 400.025 367.997 399.2 371.371 399.2V393.2C366.959 393.2 362.875 394.295 359.188 396.508L362.275 401.652ZM371.371 399.2C373.791 399.2 376.191 399.735 378.594 400.844L381.108 395.396C377.965 393.945 374.711 393.2 371.371 393.2V399.2ZM378.657 400.872C381.105 401.934 382.921 403.309 384.223 404.947L388.92 401.213C386.914 398.691 384.251 396.759 381.046 395.368L378.657 400.872ZM389.571 403.08V381.8H383.571V403.08H389.571ZM386.571 384.8H395.771V378.8H386.571V384.8ZM392.771 381.8V441H398.771V381.8H392.771ZM395.771 438H386.571V444H395.771V438ZM389.571 441V434.36H383.571V441H389.571ZM384.114 432.64C382.937 434.32 381.252 435.78 378.947 436.978L381.715 442.302C384.744 440.727 387.219 438.666 389.029 436.08L384.114 432.64ZM378.925 436.99C376.807 438.114 374.29 438.72 371.291 438.72V444.72C375.119 444.72 378.629 443.94 381.737 442.29L378.925 436.99ZM371.291 438.72C367.978 438.72 364.995 437.899 362.275 436.268L359.188 441.412C362.868 443.621 366.924 444.72 371.291 444.72V438.72ZM362.325 436.298C359.645 434.618 357.488 432.295 355.853 429.258L350.57 432.102C352.668 435.998 355.524 439.115 359.137 441.382L362.325 436.298ZM355.878 429.306C354.308 426.259 353.491 422.766 353.491 418.76H347.491C347.491 423.608 348.487 428.061 350.544 432.054L355.878 429.306ZM389.571 418.92C389.571 415.452 388.838 412.28 387.256 409.512L382.047 412.488C383.025 414.2 383.571 416.308 383.571 418.92H389.571ZM387.283 409.559C385.817 406.883 383.818 404.756 381.274 403.284L378.268 408.476C379.778 409.35 381.032 410.637 382.02 412.441L387.283 409.559ZM381.274 403.284C378.79 401.845 376.085 401.12 373.211 401.12V407.12C375.031 407.12 376.699 407.568 378.268 408.476L381.274 403.284ZM373.211 401.12C370.338 401.12 367.633 401.845 365.148 403.284L368.154 408.476C369.723 407.568 371.391 407.12 373.211 407.12V401.12ZM365.2 403.254C362.638 404.67 360.607 406.77 359.087 409.432L364.296 412.408C365.335 410.59 366.611 409.33 368.102 408.506L365.2 403.254ZM359.075 409.452C357.548 412.173 356.851 415.315 356.851 418.76H362.851C362.851 416.125 363.381 414.04 364.308 412.388L359.075 409.452ZM356.851 418.76C356.851 422.21 357.55 425.378 359.046 428.175L364.337 425.345C363.379 423.555 362.851 421.39 362.851 418.76H356.851ZM359.072 428.222C360.577 430.919 362.579 433.082 365.098 434.606L368.205 429.473C366.67 428.545 365.365 427.187 364.311 425.298L359.072 428.222ZM365.177 434.653C367.688 436.069 370.38 436.8 373.211 436.8V430.8C371.456 430.8 369.775 430.358 368.125 429.427L365.177 434.653ZM373.211 436.8C376.085 436.8 378.79 436.075 381.274 434.636L378.268 429.444C376.699 430.352 375.031 430.8 373.211 430.8V436.8ZM381.274 434.636C383.818 433.164 385.817 431.037 387.283 428.361L382.02 425.479C381.032 427.283 379.778 428.57 378.268 429.444L381.274 434.636ZM387.271 428.382C388.837 425.576 389.571 422.39 389.571 418.92H383.571C383.571 421.53 383.025 423.678 382.032 425.458L387.271 428.382ZM447.83 422.36V425.36H450.388L450.792 422.834L447.83 422.36ZM414.15 422.36V419.36H410.914L411.159 422.587L414.15 422.36ZM418.07 430.84L416.052 433.06L416.052 433.06L418.07 430.84ZM437.11 427.88V424.88H435.245L434.42 426.552L437.11 427.88ZM446.95 427.88L449.8 428.817L451.095 424.88H446.95V427.88ZM439.67 437.88L441.452 440.293L441.458 440.289L439.67 437.88ZM415.35 438.92L413.844 441.514L413.868 441.529L413.893 441.542L415.35 438.92ZM407.51 430.92L404.869 432.342L404.882 432.367L404.895 432.391L407.51 430.92ZM407.43 407L404.789 405.578L404.785 405.585L404.781 405.593L407.43 407ZM415.19 399L413.733 396.378L413.724 396.382L413.715 396.388L415.19 399ZM437.83 398.92L439.291 396.3L439.291 396.3L437.83 398.92ZM445.43 406.6L442.8 408.042L442.805 408.052L442.81 408.061L445.43 406.6ZM438.63 415V418H441.678L441.63 414.952L438.63 415ZM435.03 406.92L436.991 404.65L436.991 404.65L435.03 406.92ZM418.23 406.92L420.213 409.171L420.228 409.158L420.243 409.145L418.23 406.92ZM414.23 415L411.253 414.628L410.832 418H414.23V415ZM445.15 417.88C445.15 419.408 445.051 420.74 444.868 421.886L450.792 422.834C451.036 421.314 451.15 419.658 451.15 417.88H445.15ZM447.83 419.36H414.15V425.36H447.83V419.36ZM411.159 422.587C411.476 426.777 413.072 430.351 416.052 433.06L420.088 428.62C418.375 427.062 417.357 424.983 417.141 422.133L411.159 422.587ZM416.052 433.06C418.995 435.735 422.612 437.04 426.71 437.04V431.04C423.981 431.04 421.838 430.211 420.088 428.62L416.052 433.06ZM426.71 437.04C429.584 437.04 432.231 436.436 434.519 435.081C436.819 433.719 438.566 431.709 439.8 429.208L434.42 426.552C433.628 428.157 432.628 429.228 431.461 429.919C430.282 430.617 428.742 431.04 426.71 431.04V437.04ZM437.11 430.88H446.95V424.88H437.11V430.88ZM444.1 426.943C442.966 430.391 440.919 433.216 437.882 435.471L441.458 440.289C445.461 437.317 448.267 433.476 449.8 428.817L444.1 426.943ZM437.888 435.467C435.034 437.574 431.374 438.72 426.71 438.72V444.72C432.393 444.72 437.372 443.306 441.452 440.293L437.888 435.467ZM426.71 438.72C422.956 438.72 419.679 437.893 416.807 436.298L413.893 441.542C417.741 443.68 422.037 444.72 426.71 444.72V438.72ZM416.856 436.326C414.024 434.681 411.789 432.408 410.125 429.449L404.895 432.391C407.071 436.259 410.062 439.319 413.844 441.514L416.856 436.326ZM410.151 429.498C408.554 426.53 407.71 423.033 407.71 418.92H401.71C401.71 423.874 402.733 428.376 404.869 432.342L410.151 429.498ZM407.71 418.92C407.71 414.792 408.533 411.318 410.079 408.407L404.781 405.593C402.7 409.509 401.71 413.981 401.71 418.92H407.71ZM410.071 408.422C411.68 405.435 413.87 403.19 416.665 401.612L413.715 396.388C409.896 398.543 406.913 401.631 404.789 405.578L410.071 408.422ZM416.647 401.622C419.508 400.033 422.836 399.2 426.71 399.2V393.2C421.944 393.2 417.592 394.234 413.733 396.378L416.647 401.622ZM426.71 399.2C430.42 399.2 433.613 400.004 436.369 401.54L439.291 396.3C435.54 394.209 431.32 393.2 426.71 393.2V399.2ZM436.369 401.54C439.123 403.075 441.254 405.224 442.8 408.042L448.06 405.158C445.979 401.363 443.043 398.391 439.291 396.3L436.369 401.54ZM442.81 408.061C444.34 410.806 445.15 414.049 445.15 417.88H451.15C451.15 413.177 450.147 408.901 448.05 405.139L442.81 408.061ZM441.63 414.952C441.564 410.818 440.043 407.286 436.991 404.65L433.069 409.19C434.71 410.608 435.589 412.462 435.63 415.048L441.63 414.952ZM436.991 404.65C434.034 402.096 430.406 400.88 426.31 400.88V406.88C429.148 406.88 431.332 407.691 433.069 409.19L436.991 404.65ZM426.31 400.88C422.454 400.88 419.034 402.147 416.217 404.695L420.243 409.145C421.906 407.639 423.873 406.88 426.31 406.88V400.88ZM416.247 404.669C413.374 407.199 411.756 410.606 411.253 414.628L417.207 415.372C417.557 412.568 418.606 410.587 420.213 409.171L416.247 404.669ZM414.23 418H438.63V412H414.23V418ZM466.245 403.32H463.245V414.225L468.823 404.854L466.245 403.32ZM471.525 398.12L472.993 400.736L473.003 400.731L473.013 400.725L471.525 398.12ZM479.445 396.2H482.445V393.2H479.445V396.2ZM479.445 405.64V408.64H482.445V405.64H479.445ZM468.965 408.36L466.875 406.208L466.859 406.223L466.844 406.239L468.965 408.36ZM466.245 441V444H469.245V441H466.245ZM457.125 441H454.125V444H457.125V441ZM457.125 396.92V393.92H454.125V396.92H457.125ZM466.245 396.92H469.245V393.92H466.245V396.92ZM468.823 404.854C469.898 403.047 471.283 401.695 472.993 400.736L470.057 395.504C467.394 396.998 465.258 399.113 463.667 401.786L468.823 404.854ZM473.013 400.725C474.725 399.747 476.833 399.2 479.445 399.2V393.2C475.977 393.2 472.805 393.933 470.037 395.515L473.013 400.725ZM476.445 396.2V405.64H482.445V396.2H476.445ZM479.445 402.64H477.125V408.64H479.445V402.64ZM477.125 402.64C473.067 402.64 469.483 403.674 466.875 406.208L471.055 410.512C472.18 409.419 474.036 408.64 477.125 408.64V402.64ZM466.844 406.239C464.172 408.911 463.245 413.075 463.245 417.8H469.245C469.245 413.565 470.132 411.436 471.086 410.481L466.844 406.239ZM463.245 417.8V441H469.245V417.8H463.245ZM466.245 438H457.125V444H466.245V438ZM460.125 441V396.92H454.125V441H460.125ZM457.125 399.92H466.245V393.92H457.125V399.92ZM463.245 396.92V403.32H469.245V396.92H463.245Z" fill="black" mask="url(#path-3-outside-1_83_8)"/>
<path d="M224 315.5V304H234.5V315.5H247V326H234.5V337H224V326H212V315.5H224Z" fill="black"/>
<path d="M268.2 214.667V207H274.5V214.667H282V221.667H274.5V229H268.2V221.667H261V214.667H268.2Z" fill="black"/>
<path d="M307 274C306.6 274 300.5 266.333 297.5 262.5L313.5 245L325 255.5C319.167 261.667 307.4 274 307 274Z" fill="url(#paint1_linear_83_8)"/>
<path d="M303.5 278L291.5 267L298 262.5L307 272L303.5 278Z" fill="black"/>
<path d="M322.5 256L312.5 246.5L318 241L328.5 252L322.5 256Z" fill="black"/>
<path d="M317 263.5L335 256L335.5 255L339.5 256L403 315V336.5L389.5 349.5H374L310 291.5L305.5 280.5L317 263.5Z" fill="url(#paint2_diamond_83_8)"/>
<path d="M308.909 288.961L308.868 288.922L308.825 288.884C307.541 287.742 306.375 285.21 306.375 281.875C306.375 278.653 307.484 275.161 310.065 272.382L310.201 272.235L310.32 272.073C315.312 265.284 318.655 262.066 325.714 257.074C330.05 255.235 332.934 254.353 335.604 254.48C338.162 254.602 341.041 255.693 345.165 259.11L398.048 309.998C401.821 313.785 404.272 319.756 404.439 326.03C404.604 332.264 402.512 338.467 397.64 342.915C392.405 347.695 387.314 349.647 382.487 349.751C377.677 349.854 372.711 348.13 367.701 344.763L308.909 288.961Z" stroke="black" stroke-width="7"/>
<circle cx="228.5" cy="181.5" r="103.5" stroke="black" stroke-width="8"/>
<circle cx="228.5" cy="182.5" r="90.5" stroke="url(#paint3_diamond_83_8)" stroke-width="20"/>
<circle cx="229" cy="182" r="81" stroke="black" stroke-width="8"/>
<path d="M180.718 188.331L205.121 163.476L249.003 206.014L222.741 230.918C217.49 235.228 211.593 237.721 205.619 238.047C199.651 238.373 193.345 236.552 187.209 231.779C172.334 220.21 170.983 201.346 180.718 188.331Z" fill="url(#paint4_linear_83_8)" stroke="black" stroke-width="7"/>
<path d="M276.342 178.253L251.939 203.108L208.057 160.57L234.319 135.666C239.57 131.356 245.467 128.863 251.441 128.537C257.409 128.211 263.715 130.032 269.851 134.805C284.726 146.374 286.077 165.238 276.342 178.253Z" fill="url(#paint5_linear_83_8)" stroke="black" stroke-width="7"/>
<defs>
<linearGradient id="paint0_linear_83_8" x1="12.7705" y1="413" x2="96.3001" y2="539.487" gradientUnits="userSpaceOnUse">
<stop stop-color="#5B247A"/>
<stop offset="1" stop-color="#1BCEDF"/>
</linearGradient>
<linearGradient id="paint1_linear_83_8" x1="303" y1="252" x2="321.5" y2="271" gradientUnits="userSpaceOnUse">
<stop stop-color="#3191BB"/>
<stop offset="1" stop-color="#5B247A"/>
</linearGradient>
<radialGradient id="paint2_diamond_83_8" cx="0" cy="0" r="1" gradientUnits="userSpaceOnUse" gradientTransform="translate(354 298.5) rotate(42.3102) scale(105.475 108.824)">
<stop stop-color="#3193BC"/>
<stop offset="1" stop-color="#5B247A"/>
</radialGradient>
<radialGradient id="paint3_diamond_83_8" cx="0" cy="0" r="1" gradientUnits="userSpaceOnUse" gradientTransform="translate(151.5 111.5) rotate(36.8373) scale(351.1)">
<stop stop-color="#5B247A"/>
<stop offset="1" stop-color="#1BCEDF"/>
</radialGradient>
<linearGradient id="paint4_linear_83_8" x1="225.546" y1="225.201" x2="189.408" y2="170.264" gradientUnits="userSpaceOnUse">
<stop stop-color="#135CA2"/>
<stop offset="1" stop-color="#1BCEDF"/>
</linearGradient>
<linearGradient id="paint5_linear_83_8" x1="231.514" y1="141.383" x2="267.652" y2="196.319" gradientUnits="userSpaceOnUse">
<stop stop-color="#135CA2"/>
<stop offset="1" stop-color="#1BCEDF"/>
</linearGradient>
</defs>
</svg>
